<svg xmlns="http://www.w3.org/2000/svg" viewBox="0 0 512 512">
  <circle cx="256" cy="256" r="256" fill="#ffffff"/>
  
  <path d="M256 64 C150 64, 96 150, 96 220 C96 350, 180 410, 256 448 C332 410, 416 350, 416 220 C416 150, 362 64, 256 64 Z" fill="#000000"/>
  
  <path d="M256 64 C150 64, 96 150, 96 220 C96 350, 180 410, 256 448 V 64 Z" fill="#009900"/>
  
  <path d="M256 64 C362 64, 416 150, 416 220 C416 350, 332 410, 256 448 V 64 Z" fill="#BB0000"/>
  
  <path d="M256 120 L320 200 H280 V360 H232 V200 H192 L256 120 Z" fill="#FFFFFF"/>
</svg>